<svg aria-hidden="true" style="position: absolute; width: 0; height: 0; overflow: hidden;" version="1.1" xmlns="http://www.w3.org/2000/svg" xmlns:xlink="http://www.w3.org/1999/xlink">
<defs>
<symbol id="location" viewBox="0 0 32 32">
<path d="M16 0c-5.523 0-10 4.477-10 10 0 10 10 22 10 22s10-12 10-22c0-5.523-4.477-10-10-10zM16 16c-3.314 0-6-2.686-6-6s2.686-6 6-6 6 2.686 6 6-2.686 6-6 6z"></path>
</symbol>
<symbol id="basket" viewBox="0 0 32 32">
<path  d="M12.695 4c0.006-0 0.012-0 0.019-0 1.463 0 2.761 0.705 3.573 1.793l0.008 0.012 0.8-0.6c-1.014-1.342-2.607-2.2-4.4-2.2s-3.386 0.858-4.39 2.186l-0.010 0.014 0.8 0.6c0.822-1.1 2.12-1.805 3.584-1.805 0.006 0 0.011 0 0.017 0h-0.001z"></path>
<path  d="M30 14.5v0c0-1.381-1.119-2.5-2.5-2.5v0c-0.007-0-0.015-0-0.023-0-0.169 0-0.334 0.016-0.493 0.048l0.016-0.003c-0.286-0.4-0.679-0.706-1.138-0.879l-0.017-0.006c0.044-0.070 0.086-0.15 0.121-0.234l0.004-0.011c0.335-0.133 0.621-0.323 0.86-0.56l-0 0c0.434-0.449 0.702-1.062 0.702-1.737 0-1.381-1.119-2.5-2.5-2.5-0.675 0-1.288 0.268-1.737 0.702l0.001-0.001c-0.091 0.091-0.173 0.191-0.245 0.298l-0.005 0.007c-0.237-0.404-0.377-0.89-0.377-1.409 0-0.2 0.021-0.396 0.061-0.584l-0.003 0.018-0.63-0.15c0.050-0.050 0.095-0.11 0.15-0.16l-0.71-0.695c-0.673 0.676-1.215 1.484-1.582 2.381l-0.018 0.049c-0.091-0.355-0.192-0.653-0.312-0.941l0.017 0.046c-0.194-0.553-0.437-1.033-0.734-1.472l0.014 0.022-0.045 0.030c-1.367-2.002-3.639-3.3-6.213-3.3-4.142 0-7.5 3.358-7.5 7.5 0 2.271 1.009 4.306 2.604 5.681l0.010 0.008c-0.075 0.105-0.14 0.215-0.205 0.325-0.072 0.021-0.133 0.044-0.192 0.073l0.007-0.003-0.395-1c-0.234-0.605-0.811-1.026-1.487-1.026-0.288 0-0.558 0.077-0.791 0.21l0.008-0.004c-0.152-0.047-0.326-0.074-0.506-0.074-0.909 0-1.659 0.684-1.763 1.565l-0.001 0.008-0.060 0.545c-0.249 0.325-0.398 0.737-0.398 1.184 0 0.064 0.003 0.126 0.009 0.189l-0.001-0.008c0.067 0.56 0.356 1.042 0.775 1.361l0.005 0.004 0.56 0.43c-0.095 0.225-0.151 0.487-0.151 0.761 0 0.42 0.129 0.809 0.35 1.131l-0.004-0.007c-0.022 0.054-0.035 0.118-0.035 0.184 0 0 0 0.001 0 0.001v-0 2c0 0.276 0.224 0.5 0.5 0.5v0h0.5v5.5c0 1.657 1.343 3 3 3v0h17c1.657 0 3-1.343 3-3v0-5.5h0.5c0.276 0 0.5-0.224 0.5-0.5v0-1.95c0.145-0.365 0.275-0.725 0.38-1.080 1.207-0.191 2.119-1.225 2.119-2.471 0-0.815-0.39-1.538-0.993-1.995l-0.006-0.005zM23.285 8.555c0.168-0.046 0.299-0.174 0.349-0.336l0.001-0.004c-0.001-0.007-0.002-0.015-0.002-0.023s0.001-0.016 0.002-0.023l-0 0.001c0.074-0.253 0.206-0.471 0.38-0.645l-0 0c0.271-0.271 0.646-0.438 1.060-0.438 0.828 0 1.5 0.672 1.5 1.5s-0.672 1.5-1.5 1.5c-0.28 0-0.542-0.077-0.767-0.21l0.007 0.004-0.5 0.86c0.263 0.157 0.572 0.27 0.901 0.318l0.014 0.002c-0.275 0.263-0.649 0.425-1.060 0.425s-0.785-0.162-1.061-0.425l0.001 0.001c-0.267-0.271-0.431-0.642-0.431-1.053 0-0.688 0.464-1.268 1.096-1.445l0.011-0.002zM22.855 12.355c-0.222 0.33-0.355 0.737-0.355 1.175 0 0.007 0 0.014 0 0.022v-0.001c-0.258 0.053-0.487 0.141-0.696 0.261l0.011-0.006 0.245-1.91c0.224 0.195 0.489 0.351 0.778 0.455l0.017 0.005zM21.7 5.5c-0.004 0.067-0.007 0.146-0.007 0.226 0 0.812 0.251 1.566 0.68 2.187l-0.008-0.013c-0.174 0.103-0.325 0.219-0.461 0.351l0.001-0.001c-0.172 0.179-0.319 0.385-0.433 0.611l-0.007 0.014c-0.264-0.288-0.585-0.518-0.947-0.673l-0.018-0.007c0.195-1.031 0.616-1.941 1.211-2.71l-0.011 0.014zM22.645 18.5c0.101 0.261 0.206 0.595 0.291 0.936l0.014 0.064h-1.88l0.22-1.69c0.357 0.356 0.821 0.603 1.341 0.688l0.014 0.002zM20 9.33v-0.245c0.697 0.209 1.196 0.845 1.196 1.598 0 0.082-0.006 0.163-0.017 0.241l0.001-0.009-0.57 4.365c-0.068 0.215-0.109 0.463-0.11 0.719v0.001c-0.001 0.016-0.002 0.036-0.002 0.055s0.001 0.039 0.002 0.058l-0-0.003-0.44 3.39h-1.12l-0.39-3h0.95v-1h-1.085l-0.13-1h1.215v-1h-1.345l-0.13-1h1.5v-1h-1.63l-0.075-0.585c-0.010-0.069-0.015-0.149-0.015-0.23s0.005-0.161 0.016-0.239l-0.001 0.009c0.063-0.153 0.125-0.341 0.174-0.535l0.006-0.030c0.065-0.12 0.137-0.223 0.217-0.318l-0.002 0.003c0.203-0.23 0.466-0.403 0.763-0.497l0.012-0.003v0.245zM6.195 8.5c-0-0.012-0-0.026-0-0.040 0-3.59 2.91-6.5 6.5-6.5 2.688 0 4.994 1.631 5.984 3.958l0.016 0.043c0.193 0.531 0.305 1.143 0.305 1.782 0 0.022-0 0.045-0 0.067l0-0.003v0.245c-0.303 0.058-0.573 0.159-0.818 0.297l0.013-0.007v-1.34h-1v1.5c-0.002 0.372-0.048 0.732-0.132 1.077l0.007-0.032c-0.099 0.194-0.175 0.419-0.218 0.655l-0.002 0.015c-0.207 0.496-0.483 0.921-0.823 1.288l0.003-0.003h-1.53c1.025-0.622 1.699-1.732 1.7-3v-2.5h-1v2.5c0 0 0 0 0 0 0 0.759-0.338 1.439-0.872 1.897l-0.003 0.003-0.13-1.9c0-0.828-0.672-1.5-1.5-1.5v0 0c-0 0-0 0-0 0-0.816 0-1.48 0.652-1.5 1.463l-0 0.002-0.125 1.935c-0.537-0.461-0.875-1.141-0.875-1.9 0-0 0-0 0-0v0-2.5h-1v2.5c0.005 1.306 0.724 2.443 1.787 3.041l0.018 0.009-0.070 0.95c-0.037-0.003-0.081-0.004-0.125-0.004s-0.088 0.001-0.131 0.004l0.006-0c-1.484-0.748-2.488-2.256-2.5-3.998v-1.502h-1v1.5c0.007 1.77 0.844 3.343 2.142 4.351l0.013 0.009c-0.342 0.156-0.636 0.343-0.901 0.565l0.006-0.005c-1.378-1.191-2.245-2.942-2.245-4.895 0-0.009 0-0.017 0-0.026v0.001zM17 12.5v8c0 0.552-0.448 1-1 1s-1-0.448-1-1v0-8zM11.25 19.5l0.11-0.785c0.002-0.036 0.004-0.078 0.004-0.12s-0.001-0.084-0.004-0.126l0 0.006c0.939-0.176 1.64-0.99 1.64-1.967 0-0.003 0-0.005-0-0.008v0c0-0.004 0-0.009 0-0.013 0-0.52-0.204-0.993-0.536-1.343l0.001 0.001c-0.057-0.062-0.115-0.119-0.177-0.173l-0.003-0.002c-0.345-0.289-0.793-0.465-1.282-0.465-0.279 0-0.544 0.057-0.786 0.16l0.013-0.005c-0.315 0.133-0.579 0.334-0.782 0.586l-0.003 0.004c-0.161-0.302-0.409-0.541-0.711-0.686l-0.009-0.004c0.036-0.048 0.072-0.090 0.11-0.13l-0 0c0.466-0.496 1.101-0.828 1.812-0.904l0.013-0.001c0.102-0.017 0.22-0.026 0.34-0.026s0.238 0.010 0.353 0.028l-0.013-0.002c1.027 0.12 1.886 0.743 2.332 1.613l0.008 0.017c0.053 0.097 0.101 0.21 0.137 0.327l0.003 0.013c0.114 0.295 0.18 0.636 0.18 0.992 0 0.004 0 0.009-0 0.013v-0.001c0 0.003 0 0.007 0 0.010 0 1.569-1.204 2.856-2.739 2.989l-0.011 0.001zM14 19.15v0.35h-0.365c0.13-0.116 0.249-0.235 0.361-0.361l0.004-0.004zM11.245 15.85v-0.31c0.148 0.034 0.277 0.098 0.387 0.186l-0.002-0.001 0.1 0.095c0.166 0.178 0.269 0.417 0.27 0.68v0c0 0 0 0 0 0 0 0.542-0.431 0.983-0.968 1l-0.002 0c-0.227-0.289-0.547-0.495-0.915-0.573l-0.010-0.002c-0.062-0.124-0.1-0.269-0.105-0.423l-0-0.002c0.001-0.416 0.256-0.773 0.618-0.923l0.007-0.002c0.108-0.046 0.235-0.072 0.367-0.072 0.065 0 0.128 0.006 0.189 0.019l-0.006-0.001c0.010-0.002 0.021-0.004 0.033-0.004s0.023 0.001 0.033 0.004l-0.001-0v0.31zM12.695 10c0.213-0.001 0.416-0.045 0.6-0.124l-0.010 0.004 0.235 3.5c-0.444-0.368-0.981-0.643-1.568-0.785l-0.027-0.005 0.18-2.73c0.173 0.082 0.375 0.132 0.587 0.14l0.003 0zM12.195 8.5c0-0.276 0.224-0.5 0.5-0.5v0c0.276 0 0.5 0.224 0.5 0.5v0c0 0.276-0.224 0.5-0.5 0.5s-0.5-0.224-0.5-0.5v0zM4.28 18.295l0.135-0.295c0.031-0.063 0.049-0.137 0.049-0.215 0-0.16-0.075-0.303-0.192-0.394l-0.001-0.001-0.88-0.665c-0.214-0.163-0.359-0.407-0.39-0.686l-0-0.005c-0.003-0.029-0.005-0.062-0.005-0.096 0-0.249 0.091-0.476 0.241-0.651l-0.001 0.001c0.069-0.078 0.115-0.178 0.125-0.288l0-0.002 0.075-0.69c0.029-0.257 0.179-0.473 0.391-0.593l0.004-0.002c0.11-0.064 0.241-0.101 0.381-0.101 0.121 0 0.236 0.028 0.338 0.078l-0.005-0.002c0.068 0.037 0.149 0.059 0.235 0.059s0.167-0.022 0.238-0.060l-0.003 0.001 0.17-0.1c0.086-0.053 0.19-0.085 0.302-0.085 0.071 0 0.139 0.013 0.202 0.036l-0.004-0.001c0.168 0.059 0.3 0.185 0.364 0.346l0.001 0.004 0.635 1.61c0.060 0.155 0.191 0.271 0.352 0.309l0.003 0.001c0.032 0.007 0.069 0.011 0.106 0.011 0.136 0 0.259-0.054 0.349-0.142l-0 0 0.12-0.11c0.086-0.091 0.202-0.153 0.332-0.17l0.003-0c0.026-0.004 0.055-0.006 0.085-0.006 0.277 0 0.51 0.187 0.579 0.442l0.001 0.004 0.44 1.66c0.058 0.217 0.252 0.374 0.484 0.374 0.034 0 0.067-0.003 0.099-0.010l-0.003 0.001c0.036-0.007 0.077-0.011 0.119-0.011 0.244 0 0.456 0.137 0.564 0.338l0.002 0.003c0.037 0.072 0.058 0.157 0.058 0.247 0 0.033-0.003 0.065-0.008 0.097l0-0.003-0.135 0.965h-2.5c-0.808-1.199-1.596-2.584-2.281-4.028l-0.084-0.197-0.91 0.42c0.704 1.496 1.4 2.743 2.17 3.938l-0.080-0.133h-1.975c-0.236-0.185-0.386-0.469-0.386-0.789 0-0.151 0.033-0.294 0.093-0.422l-0.003 0.006zM5 21.5h-0.5v-1h9.5c0.002 0.37 0.106 0.715 0.285 1.009l-0.005-0.009zM26.5 28c0 1.105-0.895 2-2 2v0h-17c-1.105 0-2-0.895-2-2v0-5.5h21zM27.5 21.5h-9.78c0.174-0.285 0.278-0.63 0.28-1v-0h9.5zM28.5 18c-0.006-0-0.014-0-0.021-0-0.225 0-0.415 0.148-0.478 0.352l-0.001 0.004-0.030 0.11c-0.095 0.335-0.22 0.685-0.35 1.035h-1.12c0.087-0.424 0.163-0.952 0.211-1.488l0.004-0.057 0.095-0.035c0.994-0.339 1.844-0.875 2.54-1.565l-0 0-0.71-0.71c-0.52 0.518-1.144 0.932-1.838 1.207l-0.037 0.013c0.001-0.059 0.001-0.129 0.001-0.198 0-0.979-0.097-1.935-0.282-2.859l0.015 0.093-1 0.2c0.165 0.79 0.259 1.697 0.259 2.627 0 0.219-0.005 0.437-0.016 0.653l0.001-0.031c-0.617-0.9-1.529-1.559-2.593-1.843l-0.032-0.007-0.24 1c1.106 0.284 1.988 1.061 2.411 2.077l0.009 0.023 0.235 0.585c0 0.105-0.045 0.215-0.065 0.32h-1.5c-0.138-0.652-0.31-1.216-0.525-1.758l0.025 0.073c-0.074-0.189-0.255-0.32-0.466-0.32-0.001 0-0.002 0-0.004 0h0c-0.001 0-0.003 0-0.005 0-0.786 0-1.431-0.605-1.495-1.375l-0-0.005 0.090-0.62c0.212-0.586 0.762-0.998 1.41-1h0.085c0.16-0 0.303-0.076 0.394-0.194l0.001-0.001c0.066-0.084 0.106-0.191 0.106-0.308 0-0.045-0.006-0.089-0.017-0.13l0.001 0.004c-0.1-0.36-0.135-0.77 0.5-1.41 0.41-0.070 0.774-0.232 1.081-0.464l-0.006 0.005c0.53 0.055 0.974 0.379 1.196 0.831l0.004 0.009c0.083 0.169 0.253 0.283 0.451 0.283 0.064 0 0.126-0.012 0.183-0.034l-0.003 0.001c0.156-0.060 0.336-0.095 0.525-0.095 0.828 0 1.5 0.672 1.5 1.5 0 0.002 0 0.003 0 0.005v-0c0.001 0.019 0.002 0.042 0.002 0.065s-0.001 0.046-0.002 0.068l0-0.003v0.080c-0.003 0.019-0.004 0.042-0.004 0.065 0 0.186 0.101 0.348 0.252 0.434l0.002 0.001c0.443 0.266 0.735 0.744 0.735 1.29 0 0.823-0.663 1.491-1.484 1.5h-0.001z"></path>
<path  d="M6.5 23.5h1.5v1h-1.5v-1z"></path>
<path  d="M9 23.5h1.5v1h-1.5v-1z"></path>
<path  d="M11.5 23.5h1.5v1h-1.5v-1z"></path>
<path  d="M14 23.5h1.5v1h-1.5v-1z"></path>
<path  d="M16.5 23.5h1.5v1h-1.5v-1z"></path>
<path  d="M19 23.5h1.5v1h-1.5v-1z"></path>
<path  d="M21.5 23.5h1.5v1h-1.5v-1z"></path>
<path  d="M24 23.5h1.5v1h-1.5v-1z"></path>
<path  d="M6.5 25.5h1.5v1h-1.5v-1z"></path>
<path  d="M9 25.5h1.5v1h-1.5v-1z"></path>
<path  d="M11.5 25.5h1.5v1h-1.5v-1z"></path>
<path  d="M14 25.5h1.5v1h-1.5v-1z"></path>
<path  d="M16.5 25.5h1.5v1h-1.5v-1z"></path>
<path  d="M19 25.5h1.5v1h-1.5v-1z"></path>
<path  d="M21.5 25.5h1.5v1h-1.5v-1z"></path>
<path  d="M24 25.5h1.5v1h-1.5v-1z"></path>
<path  d="M6.5 27.5h1.5v1h-1.5v-1z"></path>
<path  d="M9 27.5h1.5v1h-1.5v-1z"></path>
<path  d="M11.5 27.5h1.5v1h-1.5v-1z"></path>
<path  d="M14 27.5h1.5v1h-1.5v-1z"></path>
<path  d="M16.5 27.5h1.5v1h-1.5v-1z"></path>
<path  d="M19 27.5h1.5v1h-1.5v-1z"></path>
<path  d="M21.5 27.5h1.5v1h-1.5v-1z"></path>
<path  d="M24 27.5h1.5v1h-1.5v-1z"></path>
</symbol>
</defs>
</svg>
