<svg aria-hidden="true" style="position: absolute; width: 0; height: 0; overflow: hidden;" version="1.1" xmlns="http://www.w3.org/2000/svg" xmlns:xlink="http://www.w3.org/1999/xlink">
<defs>
<symbol id="basket" viewBox="0 0 32 32">
<path  d="M12.695 4c0.006-0 0.012-0 0.019-0 1.463 0 2.761 0.705 3.573 1.793l0.008 0.012 0.8-0.6c-1.014-1.342-2.607-2.2-4.4-2.2s-3.386 0.858-4.39 2.186l-0.010 0.014 0.8 0.6c0.822-1.1 2.12-1.805 3.584-1.805 0.006 0 0.011 0 0.017 0h-0.001z"></path>
<path  d="M30 14.5v0c0-1.381-1.119-2.5-2.5-2.5v0c-0.007-0-0.015-0-0.023-0-0.169 0-0.334 0.016-0.493 0.048l0.016-0.003c-0.286-0.4-0.679-0.706-1.138-0.879l-0.017-0.006c0.044-0.070 0.086-0.15 0.121-0.234l0.004-0.011c0.335-0.133 0.621-0.323 0.86-0.56l-0 0c0.434-0.449 0.702-1.062 0.702-1.737 0-1.381-1.119-2.5-2.5-2.5-0.675 0-1.288 0.268-1.737 0.702l0.001-0.001c-0.091 0.091-0.173 0.191-0.245 0.298l-0.005 0.007c-0.237-0.404-0.377-0.89-0.377-1.409 0-0.2 0.021-0.396 0.061-0.584l-0.003 0.018-0.63-0.15c0.050-0.050 0.095-0.11 0.15-0.16l-0.71-0.695c-0.673 0.676-1.215 1.484-1.582 2.381l-0.018 0.049c-0.091-0.355-0.192-0.653-0.312-0.941l0.017 0.046c-0.194-0.553-0.437-1.033-0.734-1.472l0.014 0.022-0.045 0.030c-1.367-2.002-3.639-3.3-6.213-3.3-4.142 0-7.5 3.358-7.5 7.5 0 2.271 1.009 4.306 2.604 5.681l0.010 0.008c-0.075 0.105-0.14 0.215-0.205 0.325-0.072 0.021-0.133 0.044-0.192 0.073l0.007-0.003-0.395-1c-0.234-0.605-0.811-1.026-1.487-1.026-0.288 0-0.558 0.077-0.791 0.21l0.008-0.004c-0.152-0.047-0.326-0.074-0.506-0.074-0.909 0-1.659 0.684-1.763 1.565l-0.001 0.008-0.060 0.545c-0.249 0.325-0.398 0.737-0.398 1.184 0 0.064 0.003 0.126 0.009 0.189l-0.001-0.008c0.067 0.56 0.356 1.042 0.775 1.361l0.005 0.004 0.56 0.43c-0.095 0.225-0.151 0.487-0.151 0.761 0 0.42 0.129 0.809 0.35 1.131l-0.004-0.007c-0.022 0.054-0.035 0.118-0.035 0.184 0 0 0 0.001 0 0.001v-0 2c0 0.276 0.224 0.5 0.5 0.5v0h0.5v5.5c0 1.657 1.343 3 3 3v0h17c1.657 0 3-1.343 3-3v0-5.5h0.5c0.276 0 0.5-0.224 0.5-0.5v0-1.95c0.145-0.365 0.275-0.725 0.38-1.080 1.207-0.191 2.119-1.225 2.119-2.471 0-0.815-0.39-1.538-0.993-1.995l-0.006-0.005zM23.285 8.555c0.168-0.046 0.299-0.174 0.349-0.336l0.001-0.004c-0.001-0.007-0.002-0.015-0.002-0.023s0.001-0.016 0.002-0.023l-0 0.001c0.074-0.253 0.206-0.471 0.38-0.645l-0 0c0.271-0.271 0.646-0.438 1.060-0.438 0.828 0 1.5 0.672 1.5 1.5s-0.672 1.5-1.5 1.5c-0.28 0-0.542-0.077-0.767-0.21l0.007 0.004-0.5 0.86c0.263 0.157 0.572 0.27 0.901 0.318l0.014 0.002c-0.275 0.263-0.649 0.425-1.060 0.425s-0.785-0.162-1.061-0.425l0.001 0.001c-0.267-0.271-0.431-0.642-0.431-1.053 0-0.688 0.464-1.268 1.096-1.445l0.011-0.002zM22.855 12.355c-0.222 0.33-0.355 0.737-0.355 1.175 0 0.007 0 0.014 0 0.022v-0.001c-0.258 0.053-0.487 0.141-0.696 0.261l0.011-0.006 0.245-1.91c0.224 0.195 0.489 0.351 0.778 0.455l0.017 0.005zM21.7 5.5c-0.004 0.067-0.007 0.146-0.007 0.226 0 0.812 0.251 1.566 0.68 2.187l-0.008-0.013c-0.174 0.103-0.325 0.219-0.461 0.351l0.001-0.001c-0.172 0.179-0.319 0.385-0.433 0.611l-0.007 0.014c-0.264-0.288-0.585-0.518-0.947-0.673l-0.018-0.007c0.195-1.031 0.616-1.941 1.211-2.71l-0.011 0.014zM22.645 18.5c0.101 0.261 0.206 0.595 0.291 0.936l0.014 0.064h-1.88l0.22-1.69c0.357 0.356 0.821 0.603 1.341 0.688l0.014 0.002zM20 9.33v-0.245c0.697 0.209 1.196 0.845 1.196 1.598 0 0.082-0.006 0.163-0.017 0.241l0.001-0.009-0.57 4.365c-0.068 0.215-0.109 0.463-0.11 0.719v0.001c-0.001 0.016-0.002 0.036-0.002 0.055s0.001 0.039 0.002 0.058l-0-0.003-0.44 3.39h-1.12l-0.39-3h0.95v-1h-1.085l-0.13-1h1.215v-1h-1.345l-0.13-1h1.5v-1h-1.63l-0.075-0.585c-0.010-0.069-0.015-0.149-0.015-0.23s0.005-0.161 0.016-0.239l-0.001 0.009c0.063-0.153 0.125-0.341 0.174-0.535l0.006-0.030c0.065-0.12 0.137-0.223 0.217-0.318l-0.002 0.003c0.203-0.23 0.466-0.403 0.763-0.497l0.012-0.003v0.245zM6.195 8.5c-0-0.012-0-0.026-0-0.040 0-3.59 2.91-6.5 6.5-6.5 2.688 0 4.994 1.631 5.984 3.958l0.016 0.043c0.193 0.531 0.305 1.143 0.305 1.782 0 0.022-0 0.045-0 0.067l0-0.003v0.245c-0.303 0.058-0.573 0.159-0.818 0.297l0.013-0.007v-1.34h-1v1.5c-0.002 0.372-0.048 0.732-0.132 1.077l0.007-0.032c-0.099 0.194-0.175 0.419-0.218 0.655l-0.002 0.015c-0.207 0.496-0.483 0.921-0.823 1.288l0.003-0.003h-1.53c1.025-0.622 1.699-1.732 1.7-3v-2.5h-1v2.5c0 0 0 0 0 0 0 0.759-0.338 1.439-0.872 1.897l-0.003 0.003-0.13-1.9c0-0.828-0.672-1.5-1.5-1.5v0 0c-0 0-0 0-0 0-0.816 0-1.48 0.652-1.5 1.463l-0 0.002-0.125 1.935c-0.537-0.461-0.875-1.141-0.875-1.9 0-0 0-0 0-0v0-2.5h-1v2.5c0.005 1.306 0.724 2.443 1.787 3.041l0.018 0.009-0.070 0.95c-0.037-0.003-0.081-0.004-0.125-0.004s-0.088 0.001-0.131 0.004l0.006-0c-1.484-0.748-2.488-2.256-2.5-3.998v-1.502h-1v1.5c0.007 1.77 0.844 3.343 2.142 4.351l0.013 0.009c-0.342 0.156-0.636 0.343-0.901 0.565l0.006-0.005c-1.378-1.191-2.245-2.942-2.245-4.895 0-0.009 0-0.017 0-0.026v0.001zM17 12.5v8c0 0.552-0.448 1-1 1s-1-0.448-1-1v0-8zM11.25 19.5l0.11-0.785c0.002-0.036 0.004-0.078 0.004-0.12s-0.001-0.084-0.004-0.126l0 0.006c0.939-0.176 1.64-0.99 1.64-1.967 0-0.003 0-0.005-0-0.008v0c0-0.004 0-0.009 0-0.013 0-0.52-0.204-0.993-0.536-1.343l0.001 0.001c-0.057-0.062-0.115-0.119-0.177-0.173l-0.003-0.002c-0.345-0.289-0.793-0.465-1.282-0.465-0.279 0-0.544 0.057-0.786 0.16l0.013-0.005c-0.315 0.133-0.579 0.334-0.782 0.586l-0.003 0.004c-0.161-0.302-0.409-0.541-0.711-0.686l-0.009-0.004c0.036-0.048 0.072-0.090 0.11-0.13l-0 0c0.466-0.496 1.101-0.828 1.812-0.904l0.013-0.001c0.102-0.017 0.22-0.026 0.34-0.026s0.238 0.010 0.353 0.028l-0.013-0.002c1.027 0.12 1.886 0.743 2.332 1.613l0.008 0.017c0.053 0.097 0.101 0.21 0.137 0.327l0.003 0.013c0.114 0.295 0.18 0.636 0.18 0.992 0 0.004 0 0.009-0 0.013v-0.001c0 0.003 0 0.007 0 0.010 0 1.569-1.204 2.856-2.739 2.989l-0.011 0.001zM14 19.15v0.35h-0.365c0.13-0.116 0.249-0.235 0.361-0.361l0.004-0.004zM11.245 15.85v-0.31c0.148 0.034 0.277 0.098 0.387 0.186l-0.002-0.001 0.1 0.095c0.166 0.178 0.269 0.417 0.27 0.68v0c0 0 0 0 0 0 0 0.542-0.431 0.983-0.968 1l-0.002 0c-0.227-0.289-0.547-0.495-0.915-0.573l-0.010-0.002c-0.062-0.124-0.1-0.269-0.105-0.423l-0-0.002c0.001-0.416 0.256-0.773 0.618-0.923l0.007-0.002c0.108-0.046 0.235-0.072 0.367-0.072 0.065 0 0.128 0.006 0.189 0.019l-0.006-0.001c0.010-0.002 0.021-0.004 0.033-0.004s0.023 0.001 0.033 0.004l-0.001-0v0.31zM12.695 10c0.213-0.001 0.416-0.045 0.6-0.124l-0.010 0.004 0.235 3.5c-0.444-0.368-0.981-0.643-1.568-0.785l-0.027-0.005 0.18-2.73c0.173 0.082 0.375 0.132 0.587 0.14l0.003 0zM12.195 8.5c0-0.276 0.224-0.5 0.5-0.5v0c0.276 0 0.5 0.224 0.5 0.5v0c0 0.276-0.224 0.5-0.5 0.5s-0.5-0.224-0.5-0.5v0zM4.28 18.295l0.135-0.295c0.031-0.063 0.049-0.137 0.049-0.215 0-0.16-0.075-0.303-0.192-0.394l-0.001-0.001-0.88-0.665c-0.214-0.163-0.359-0.407-0.39-0.686l-0-0.005c-0.003-0.029-0.005-0.062-0.005-0.096 0-0.249 0.091-0.476 0.241-0.651l-0.001 0.001c0.069-0.078 0.115-0.178 0.125-0.288l0-0.002 0.075-0.69c0.029-0.257 0.179-0.473 0.391-0.593l0.004-0.002c0.11-0.064 0.241-0.101 0.381-0.101 0.121 0 0.236 0.028 0.338 0.078l-0.005-0.002c0.068 0.037 0.149 0.059 0.235 0.059s0.167-0.022 0.238-0.060l-0.003 0.001 0.17-0.1c0.086-0.053 0.19-0.085 0.302-0.085 0.071 0 0.139 0.013 0.202 0.036l-0.004-0.001c0.168 0.059 0.3 0.185 0.364 0.346l0.001 0.004 0.635 1.61c0.060 0.155 0.191 0.271 0.352 0.309l0.003 0.001c0.032 0.007 0.069 0.011 0.106 0.011 0.136 0 0.259-0.054 0.349-0.142l-0 0 0.12-0.11c0.086-0.091 0.202-0.153 0.332-0.17l0.003-0c0.026-0.004 0.055-0.006 0.085-0.006 0.277 0 0.51 0.187 0.579 0.442l0.001 0.004 0.44 1.66c0.058 0.217 0.252 0.374 0.484 0.374 0.034 0 0.067-0.003 0.099-0.010l-0.003 0.001c0.036-0.007 0.077-0.011 0.119-0.011 0.244 0 0.456 0.137 0.564 0.338l0.002 0.003c0.037 0.072 0.058 0.157 0.058 0.247 0 0.033-0.003 0.065-0.008 0.097l0-0.003-0.135 0.965h-2.5c-0.808-1.199-1.596-2.584-2.281-4.028l-0.084-0.197-0.91 0.42c0.704 1.496 1.4 2.743 2.17 3.938l-0.080-0.133h-1.975c-0.236-0.185-0.386-0.469-0.386-0.789 0-0.151 0.033-0.294 0.093-0.422l-0.003 0.006zM5 21.5h-0.5v-1h9.5c0.002 0.37 0.106 0.715 0.285 1.009l-0.005-0.009zM26.5 28c0 1.105-0.895 2-2 2v0h-17c-1.105 0-2-0.895-2-2v0-5.5h21zM27.5 21.5h-9.78c0.174-0.285 0.278-0.63 0.28-1v-0h9.5zM28.5 18c-0.006-0-0.014-0-0.021-0-0.225 0-0.415 0.148-0.478 0.352l-0.001 0.004-0.030 0.11c-0.095 0.335-0.22 0.685-0.35 1.035h-1.12c0.087-0.424 0.163-0.952 0.211-1.488l0.004-0.057 0.095-0.035c0.994-0.339 1.844-0.875 2.54-1.565l-0 0-0.71-0.71c-0.52 0.518-1.144 0.932-1.838 1.207l-0.037 0.013c0.001-0.059 0.001-0.129 0.001-0.198 0-0.979-0.097-1.935-0.282-2.859l0.015 0.093-1 0.2c0.165 0.79 0.259 1.697 0.259 2.627 0 0.219-0.005 0.437-0.016 0.653l0.001-0.031c-0.617-0.9-1.529-1.559-2.593-1.843l-0.032-0.007-0.24 1c1.106 0.284 1.988 1.061 2.411 2.077l0.009 0.023 0.235 0.585c0 0.105-0.045 0.215-0.065 0.32h-1.5c-0.138-0.652-0.31-1.216-0.525-1.758l0.025 0.073c-0.074-0.189-0.255-0.32-0.466-0.32-0.001 0-0.002 0-0.004 0h0c-0.001 0-0.003 0-0.005 0-0.786 0-1.431-0.605-1.495-1.375l-0-0.005 0.090-0.62c0.212-0.586 0.762-0.998 1.41-1h0.085c0.16-0 0.303-0.076 0.394-0.194l0.001-0.001c0.066-0.084 0.106-0.191 0.106-0.308 0-0.045-0.006-0.089-0.017-0.13l0.001 0.004c-0.1-0.36-0.135-0.77 0.5-1.41 0.41-0.070 0.774-0.232 1.081-0.464l-0.006 0.005c0.53 0.055 0.974 0.379 1.196 0.831l0.004 0.009c0.083 0.169 0.253 0.283 0.451 0.283 0.064 0 0.126-0.012 0.183-0.034l-0.003 0.001c0.156-0.060 0.336-0.095 0.525-0.095 0.828 0 1.5 0.672 1.5 1.5 0 0.002 0 0.003 0 0.005v-0c0.001 0.019 0.002 0.042 0.002 0.065s-0.001 0.046-0.002 0.068l0-0.003v0.080c-0.003 0.019-0.004 0.042-0.004 0.065 0 0.186 0.101 0.348 0.252 0.434l0.002 0.001c0.443 0.266 0.735 0.744 0.735 1.29 0 0.823-0.663 1.491-1.484 1.5h-0.001z"></path>
<path  d="M6.5 23.5h1.5v1h-1.5v-1z"></path>
<path  d="M9 23.5h1.5v1h-1.5v-1z"></path>
<path  d="M11.5 23.5h1.5v1h-1.5v-1z"></path>
<path  d="M14 23.5h1.5v1h-1.5v-1z"></path>
<path  d="M16.5 23.5h1.5v1h-1.5v-1z"></path>
<path  d="M19 23.5h1.5v1h-1.5v-1z"></path>
<path  d="M21.5 23.5h1.5v1h-1.5v-1z"></path>
<path  d="M24 23.5h1.5v1h-1.5v-1z"></path>
<path  d="M6.5 25.5h1.5v1h-1.5v-1z"></path>
<path  d="M9 25.5h1.5v1h-1.5v-1z"></path>
<path  d="M11.5 25.5h1.5v1h-1.5v-1z"></path>
<path  d="M14 25.5h1.5v1h-1.5v-1z"></path>
<path  d="M16.5 25.5h1.5v1h-1.5v-1z"></path>
<path  d="M19 25.5h1.5v1h-1.5v-1z"></path>
<path  d="M21.5 25.5h1.5v1h-1.5v-1z"></path>
<path  d="M24 25.5h1.5v1h-1.5v-1z"></path>
<path  d="M6.5 27.5h1.5v1h-1.5v-1z"></path>
<path  d="M9 27.5h1.5v1h-1.5v-1z"></path>
<path  d="M11.5 27.5h1.5v1h-1.5v-1z"></path>
<path  d="M14 27.5h1.5v1h-1.5v-1z"></path>
<path  d="M16.5 27.5h1.5v1h-1.5v-1z"></path>
<path  d="M19 27.5h1.5v1h-1.5v-1z"></path>
<path  d="M21.5 27.5h1.5v1h-1.5v-1z"></path>
<path  d="M24 27.5h1.5v1h-1.5v-1z"></path>
</symbol>
<symbol id="telegram" viewBox="0 0 32 32">
<path d="M16 0c-8.838 0-16 7.162-16 16s7.162 16 16 16 16-7.163 16-16-7.163-16-16-16zM23.863 10.969l-2.625 12.369c-0.181 0.881-0.712 1.087-1.45 0.681l-4-2.956-1.919 1.869c-0.225 0.219-0.4 0.4-0.8 0.4-0.519 0-0.431-0.194-0.606-0.688l-1.363-4.475-3.956-1.231c-0.856-0.262-0.862-0.85 0.194-1.269l15.412-5.95c0.7-0.319 1.381 0.169 1.113 1.25z"></path>
</symbol>
<symbol id="viber" viewBox="0 0 32 32">
<path  d="M15.197 0.003c-2.567 0.035-8.089 0.456-11.179 3.287-2.293 2.28-3.095 5.641-3.188 9.804-0.080 4.147-0.173 11.933 7.333 14.055v3.227c0 0-0.051 1.293 0.803 1.56 1.053 0.333 1.653-0.665 2.653-1.732l1.867-2.107c5.133 0.427 9.067-0.559 9.52-0.705 1.040-0.333 6.908-1.081 7.868-8.869 0.987-8.041-0.48-13.108-3.12-15.401l-0.013-0.003c-0.8-0.733-4-3.067-11.16-3.093 0 0-0.528-0.033-1.384-0.021zM15.287 2.265c0.727-0.004 1.173 0.027 1.173 0.027 6.053 0.013 8.948 1.84 9.628 2.453 2.227 1.905 3.371 6.475 2.533 13.189-0.8 6.507-5.56 6.92-6.44 7.2-0.373 0.12-3.84 0.973-8.203 0.693 0 0-3.252 3.921-4.265 4.935-0.16 0.173-0.347 0.227-0.467 0.2-0.173-0.040-0.227-0.253-0.213-0.547l0.027-5.359c-6.361-1.76-5.988-8.403-5.921-11.869 0.080-3.467 0.733-6.309 2.667-8.229 2.609-2.36 7.3-2.68 9.481-2.693zM15.767 5.732c-0 0-0.001 0-0.001 0-0.22 0-0.399 0.178-0.399 0.399 0 0 0 0 0 0v0c0 0.221 0.179 0.4 0.4 0.4v0c0.043-0.001 0.093-0.001 0.143-0.001 2.034 0 3.88 0.809 5.232 2.123l-0.002-0.002c1.453 1.413 2.161 3.307 2.188 5.787 0 0.221 0.179 0.4 0.4 0.4v0-0.012c0.221 0 0.4-0.179 0.4-0.4v0c0.005-0.109 0.008-0.236 0.008-0.364 0-2.326-0.923-4.436-2.423-5.985l0.002 0.002c-1.587-1.547-3.589-2.347-5.948-2.347zM10.495 6.652c-0.054-0.008-0.116-0.013-0.18-0.013-0.236 0-0.457 0.064-0.646 0.176l0.006-0.003h-0.016c-0.547 0.32-1.051 0.72-1.531 1.253-0.36 0.427-0.561 0.852-0.615 1.265-0.009 0.064-0.014 0.137-0.014 0.212 0 0.182 0.029 0.357 0.084 0.521l-0.003-0.012 0.027 0.013c0.458 1.331 0.998 2.476 1.646 3.549l-0.046-0.082c0.895 1.608 1.922 2.996 3.101 4.237l-0.008-0.009 0.040 0.053 0.053 0.040 0.080 0.080c1.236 1.174 2.628 2.205 4.136 3.053l0.104 0.054c1.76 0.96 2.829 1.413 3.469 1.6v0.013c0.187 0.053 0.357 0.080 0.531 0.080 0.57-0.043 1.079-0.274 1.471-0.631l-0.002 0.002c0.52-0.467 0.933-0.984 1.24-1.531v-0.013c0.307-0.573 0.2-1.121-0.24-1.495-0.845-0.742-1.782-1.421-2.781-2.007l-0.085-0.046c-0.68-0.373-1.373-0.147-1.653 0.227l-0.6 0.759c-0.307 0.373-0.867 0.32-0.867 0.32l-0.016 0.013c-4.16-1.067-5.267-5.279-5.267-5.279s-0.053-0.573 0.333-0.867l0.747-0.6c0.36-0.293 0.613-0.987 0.227-1.667-0.631-1.084-1.31-2.022-2.071-2.887l0.017 0.020c-0.166-0.204-0.399-0.349-0.665-0.399l-0.007-0.001zM16.459 7.839c-0.22 0.001-0.399 0.18-0.399 0.4s0.179 0.4 0.4 0.4c0 0 0.001 0 0.001 0h-0c1.388 0.025 2.636 0.607 3.532 1.532l0.001 0.001c0.75 0.825 1.209 1.926 1.209 3.134 0 0.103-0.003 0.205-0.010 0.306l0.001-0.014c0.001 0.22 0.18 0.399 0.4 0.399 0 0 0 0 0 0v0l0.013 0.016c0 0 0 0 0 0 0.221 0 0.4-0.179 0.4-0.4 0-0 0-0.001 0-0.001v0c0.040-1.587-0.453-2.92-1.427-3.987s-2.333-1.667-4.067-1.787c-0.008-0.001-0.018-0.001-0.028-0.001s-0.020 0-0.029 0.001l0.001-0zM17.112 9.997c-0.004-0-0.008-0-0.012-0-0.225 0-0.407 0.182-0.407 0.408 0 0.221 0.176 0.401 0.395 0.407h0.001c1.32 0.067 1.96 0.733 2.040 2.107 0.007 0.215 0.184 0.387 0.4 0.387 0 0 0 0 0 0h0.013c0.215-0.007 0.388-0.183 0.388-0.4 0-0.009-0-0.019-0.001-0.028l0 0.001c-0.093-1.787-1.067-2.788-2.8-2.881-0.002-0-0.005-0-0.008-0s-0.006 0-0.008 0h0z"></path>
</symbol>
<symbol id="delete" viewBox="0 0 32 32">
<path d="M28.992 7.153l-0.707-2.118c-0.269-0.807-1.021-1.349-1.871-1.349h-5.938v-1.933c0-0.966-0.786-1.753-1.752-1.753h-5.438c-0.966 0-1.752 0.786-1.752 1.753v1.933h-5.938c-0.85 0-1.603 0.542-1.872 1.349l-0.707 2.118c-0.161 0.482-0.079 1.016 0.218 1.428s0.778 0.659 1.286 0.659h0.739l1.625 20.1c0.121 1.491 1.386 2.66 2.882 2.66h12.804c1.495 0 2.761-1.169 2.882-2.66l1.625-20.1h0.409c0.508 0 0.989-0.246 1.286-0.658s0.379-0.947 0.218-1.429zM13.41 1.875h5.191v1.811h-5.191v-1.811zM23.585 29.189c-0.043 0.525-0.487 0.936-1.013 0.936h-12.804c-0.525 0-0.97-0.411-1.013-0.936l-1.614-19.949h18.056l-1.613 19.949zM4.924 7.365l0.579-1.737c0.013-0.040 0.051-0.067 0.093-0.067h20.818c0.042 0 0.079 0.027 0.093 0.067l0.579 1.737h-22.162z"></path>
<path d="M20.595 29.122c0.017 0.001 0.033 0.001 0.050 0.001 0.495 0 0.909-0.388 0.935-0.889l0.88-16.9c0.027-0.517-0.371-0.958-0.887-0.985-0.518-0.028-0.958 0.37-0.985 0.887l-0.88 16.9c-0.027 0.517 0.37 0.958 0.887 0.985z"></path>
<path d="M10.473 28.237c0.027 0.5 0.441 0.886 0.935 0.886 0.017 0 0.035-0.001 0.052-0.001 0.517-0.028 0.913-0.47 0.885-0.987l-0.922-16.9c-0.028-0.517-0.47-0.913-0.987-0.885s-0.913 0.47-0.885 0.987l0.922 16.9z"></path>
<path d="M16.016 29.123c0.518 0 0.938-0.42 0.938-0.937v-16.9c0-0.518-0.42-0.938-0.938-0.938s-0.938 0.42-0.938 0.938v16.9c0 0.518 0.42 0.937 0.938 0.937z"></path>
</symbol>
<symbol id="circle-right" viewBox="0 0 32 32">
<path d="M16 0c-8.837 0-16 7.163-16 16s7.163 16 16 16 16-7.163 16-16-7.163-16-16-16zM16 29c-7.18 0-13-5.82-13-13s5.82-13 13-13 13 5.82 13 13-5.82 13-13 13z"></path>
<path d="M11.086 22.086l2.829 2.829 8.914-8.914-8.914-8.914-2.828 2.828 6.086 6.086z"></path>
</symbol>
<symbol id="circle-left" viewBox="0 0 32 32">
<path d="M16 32c8.837 0 16-7.163 16-16s-7.163-16-16-16-16 7.163-16 16 7.163 16 16 16zM16 3c7.18 0 13 5.82 13 13s-5.82 13-13 13-13-5.82-13-13 5.82-13 13-13z"></path>
<path d="M20.914 9.914l-2.829-2.829-8.914 8.914 8.914 8.914 2.828-2.828-6.086-6.086z"></path>
</symbol>
<symbol id="empty-cart" viewBox="0 0 32 32">
<path d="M28.064 9.514c-0.199-0.28-0.521-0.446-0.864-0.448h-6.666l-1.91-6.688c-0.124-0.341-0.412-0.595-0.765-0.676s-0.723 0.023-0.983 0.276-0.372 0.62-0.301 0.975l1.739 6.112h-4.63l1.739-6.112c0.072-0.355-0.041-0.722-0.301-0.975s-0.629-0.357-0.982-0.276c-0.353 0.081-0.641 0.335-0.765 0.676l-1.909 6.688h-6.667c-0.343 0.002-0.665 0.168-0.864 0.448-0.201 0.277-0.257 0.635-0.149 0.96l4.267 12.8c0.074 0.221 0.219 0.411 0.411 0.542s0.423 0.195 0.655 0.183h13.866c0.224 0.001 0.442-0.069 0.624-0.199s0.318-0.314 0.39-0.526l4.267-12.8c0.093-0.334 0.017-0.692-0.203-0.96zM22.166 21.866h-12.331l-3.552-10.666h19.434zM13.334 13.333v0c0 0.283-0.113 0.554-0.313 0.754s-0.471 0.313-0.754 0.313c-0.283 0-0.554-0.112-0.754-0.313s-0.313-0.471-0.313-0.754c0-0.283 0.112-0.554 0.313-0.754s0.471-0.313 0.754-0.313c0.283 0 0.554 0.113 0.754 0.313s0.313 0.471 0.313 0.754zM20.8 13.333v0c0 0.283-0.112 0.554-0.313 0.754s-0.471 0.313-0.754 0.313c-0.283 0-0.554-0.112-0.754-0.313s-0.313-0.471-0.313-0.754c0-0.283 0.113-0.554 0.313-0.754s0.471-0.313 0.754-0.313c0.283 0 0.554 0.113 0.754 0.313s0.313 0.471 0.313 0.754z"></path>
</symbol>
<symbol id="email" viewBox="0 0 32 32">
<path d="M29 4h-26c-1.65 0-3 1.35-3 3v20c0 1.65 1.35 3 3 3h26c1.65 0 3-1.35 3-3v-20c0-1.65-1.35-3-3-3zM12.461 17.199l-8.461 6.59v-15.676l8.461 9.086zM5.512 8h20.976l-10.488 7.875-10.488-7.875zM12.79 17.553l3.21 3.447 3.21-3.447 6.58 8.447h-19.579l6.58-8.447zM19.539 17.199l8.461-9.086v15.676l-8.461-6.59z"></path>
</symbol>
<symbol id="phone" viewBox="0 0 32 32">
<path d="M22 20c-2 2-2 4-4 4s-4-2-6-4-4-4-4-6 2-2 4-4-4-8-6-8-6 6-6 6c0 4 4.109 12.109 8 16s12 8 16 8c0 0 6-4 6-6s-6-8-8-6z"></path>
</symbol>
<symbol id="user" viewBox="0 0 32 32">
<path d="M18 22.082v-1.649c2.203-1.241 4-4.337 4-7.432 0-4.971 0-9-6-9s-6 4.029-6 9c0 3.096 1.797 6.191 4 7.432v1.649c-6.784 0.555-12 3.888-12 7.918h28c0-4.030-5.216-7.364-12-7.918z"></path>
</symbol>
<symbol id="apply" viewBox="0 0 32 32">
<path d="M12.42 28.678l-12.433-12.238 6.168-6.071 6.265 6.167 13.426-13.214 6.168 6.071-19.594 19.285zM3.372 16.441l9.048 8.905 16.208-15.953-2.782-2.739-13.426 13.214-6.265-6.167-2.782 2.739z"></path>
</symbol>
<symbol id="cancel-circle" viewBox="0 0 32 32">
<path d="M16 0c-8.837 0-16 7.163-16 16s7.163 16 16 16 16-7.163 16-16-7.163-16-16-16zM16 29c-7.18 0-13-5.82-13-13s5.82-13 13-13 13 5.82 13 13-5.82 13-13 13z"></path>
<path d="M21 8l-5 5-5-5-3 3 5 5-5 5 3 3 5-5 5 5 3-3-5-5 5-5z"></path>
</symbol>
<symbol id="arrow-back" viewBox="0 0 32 32">
<path d="M1 16l15 15v-9h16v-12h-16v-9z"></path>
</symbol>
<symbol id="info" viewBox="0 0 32 32">
<path d="M31.008 27.231l-7.58-6.447c-0.784-0.705-1.622-1.029-2.299-0.998 1.789-2.096 2.87-4.815 2.87-7.787 0-6.627-5.373-12-12-12s-12 5.373-12 12 5.373 12 12 12c2.972 0 5.691-1.081 7.787-2.87-0.031 0.677 0.293 1.515 0.998 2.299l6.447 7.58c1.104 1.226 2.907 1.33 4.007 0.23s0.997-2.903-0.23-4.007zM12 20c-4.418 0-8-3.582-8-8s3.582-8 8-8 8 3.582 8 8-3.582 8-8 8z"></path>
</symbol>
<symbol id="close" viewBox="0 0 32 32">
<path d="M31.708 25.708c-0-0-0-0-0-0l-9.708-9.708 9.708-9.708c0-0 0-0 0-0 0.105-0.105 0.18-0.227 0.229-0.357 0.133-0.356 0.057-0.771-0.229-1.057l-4.586-4.586c-0.286-0.286-0.702-0.361-1.057-0.229-0.13 0.048-0.252 0.124-0.357 0.228 0 0-0 0-0 0l-9.708 9.708-9.708-9.708c-0-0-0-0-0-0-0.105-0.104-0.227-0.18-0.357-0.228-0.356-0.133-0.771-0.057-1.057 0.229l-4.586 4.586c-0.286 0.286-0.361 0.702-0.229 1.057 0.049 0.13 0.124 0.252 0.229 0.357 0 0 0 0 0 0l9.708 9.708-9.708 9.708c-0 0-0 0-0 0-0.104 0.105-0.18 0.227-0.229 0.357-0.133 0.355-0.057 0.771 0.229 1.057l4.586 4.586c0.286 0.286 0.702 0.361 1.057 0.229 0.13-0.049 0.252-0.124 0.357-0.229 0-0 0-0 0-0l9.708-9.708 9.708 9.708c0 0 0 0 0 0 0.105 0.105 0.227 0.18 0.357 0.229 0.356 0.133 0.771 0.057 1.057-0.229l4.586-4.586c0.286-0.286 0.362-0.702 0.229-1.057-0.049-0.13-0.124-0.252-0.229-0.357z"></path>
</symbol>
</defs>
</svg>
